<svg width="64" height="64" viewBox="0 0 64 64" fill="none" xmlns="http://www.w3.org/2000/svg">
<path d="M0 43.4091C0 39.2872 0 41.9491 0 39.4228C0 35.3604 3.96859 29.3169 11.524 29.1096C14.3437 29.0322 26.2475 29.1096 30.781 29.1096C36.5114 29.1096 41.7401 35.1358 41.7401 39.1119C41.7401 41.6362 41.7401 39.0213 41.7401 43.2018C41.7401 48.7463 34.6385 53.9296 30.1031 53.9296C27.3913 53.9296 15.7684 53.9296 11.411 53.9296C5.51257 53.9296 0 48.859 0 43.4091Z" fill="url(#paint0_linear_681_17)"/>
<path d="M0.191895 23.3759C0.191895 19.254 0.191895 21.9159 0.191895 19.3896C0.191895 15.3272 4.16048 9.28369 11.7159 9.07638C14.5356 8.99901 24.9996 9.07638 29.5331 9.07638C35.2635 9.07638 40.4922 15.1026 40.4922 19.0787C40.4922 21.603 40.4922 18.9881 40.4922 23.1686C40.4922 28.7131 33.3905 33.8964 28.8552 33.8964C26.1434 33.8964 15.9602 33.8964 11.6029 33.8964C5.70446 33.8964 0.191895 28.8258 0.191895 23.3759Z" fill="url(#paint1_linear_681_17)"/>
<path d="M5.00732 31.5C5.00732 19.0736 15.9877 9 29.5326 9C43.0776 9 54.0579 19.0736 54.0579 31.5C54.0579 43.9264 43.0776 54 29.5326 54C15.9877 54 5.00732 43.9264 5.00732 31.5Z" fill="#595959"/>
<path d="M12.1904 36.8922C12.1904 32.7704 12.1904 28.4315 12.1904 25.9053C12.1904 21.8429 16.159 15.7993 23.7145 15.592C26.5341 15.5146 31.3829 15.592 35.9164 15.592C41.6468 15.592 46.8755 21.6182 46.8755 25.5943C46.8755 28.1187 46.8755 32.5045 46.8755 36.6849C46.8755 42.2295 39.7739 47.4128 35.2385 47.4128C32.5267 47.4128 27.9588 47.4128 23.6015 47.4128C17.703 47.4128 12.1904 42.3422 12.1904 36.8922Z" fill="url(#paint2_linear_681_17)"/>
<path d="M17.8608 31.5169C17.8608 27.3951 17.8608 34.0678 17.8608 31.5415C17.8608 27.4791 21.8294 21.4356 29.3849 21.2283C31.3283 21.1749 53.031 21.1688 59.2246 21.1701C62.0172 21.1707 63.9817 23.6556 63.9817 25.6041C63.9817 27.9533 63.9817 33.8203 63.9817 37.9162C63.9817 40.4013 62.1553 42.2155 59.5069 42.1893C53.6318 42.1311 32.2753 42.0375 29.2719 42.0375C23.3734 42.0375 17.8608 36.9669 17.8608 31.5169Z" fill="url(#paint3_linear_681_17)"/>
<defs>
<linearGradient id="paint0_linear_681_17" x1="17.3425" y1="29.1096" x2="17.3425" y2="60.9304" gradientUnits="userSpaceOnUse">
<stop stop-color="#424242"/>
<stop offset="1" stop-color="#363636"/>
</linearGradient>
<linearGradient id="paint1_linear_681_17" x1="16.9362" y1="9.07638" x2="16.9362" y2="40.8972" gradientUnits="userSpaceOnUse">
<stop stop-color="#424242"/>
<stop offset="1" stop-color="#363636"/>
</linearGradient>
<linearGradient id="paint2_linear_681_17" x1="29.533" y1="15.592" x2="29.533" y2="47.4128" gradientUnits="userSpaceOnUse">
<stop stop-color="#424242"/>
<stop offset="1" stop-color="#333333"/>
</linearGradient>
<linearGradient id="paint3_linear_681_17" x1="35.2034" y1="10.2167" x2="35.2034" y2="42.0375" gradientUnits="userSpaceOnUse">
<stop stop-color="#808080"/>
<stop offset="1" stop-color="#666666"/>
</linearGradient>
</defs>
</svg>
